<svg xmlns="http://www.w3.org/2000/svg" width="863.533" height="382" xmlns:v="https://vecta.io/nano"><path d="M645.533 0c1.628 2.864 4.178 5.058 5.698 8.004 2.622 5.08 4.106 10.833 6.672 15.996 2.123 4.274 4.959 8.363 6.254 13 6.558 23.476.804 50.054 1.391 74l1.985 96c0 15.692 1.183 31.266.996 47-.092 7.718-.354 17.231-5.996 23 .623 5.106-1.311 9.848-.907 15 .802 10.218 5.205 19.156 9.907 28 4.251-3.556 5.158-8.783 11-10 .269-3.667 2.437-6.485 2.782-10.039.671-6.915-.35-14.033.392-20.961 1.147-10.715 4.362-21.312 5.642-32 2.229-18.618 3.184-38.229 3.184-57 13.326 4.246 25.418 15.334 37 22.936 3.229 2.119 6.557 6.328 10.286 7.417 3.889 1.135 6.636-2.824 9-5.187 5.309-5.308 11.608-9.656 7.726-18.166-8.645-18.947-32.398-23.266-44.012-39 14.597-6.299 25.216-22.034 34.934-34 2.968-3.654 9.13-7.71 10.713-12.09 1.686-4.662-2.8-9.879-5.741-12.885-7.688-7.858-13.476-14.147-24.906-12.025 1.544 3.25 5.177 6.201 5.102 10.015-.103 5.229-5.121 9.973-7.925 13.985-8 11.448-16.79 26.021-31.177 29 0-26.798 2.262-53.31 4.089-80 .726-10.593 4.873-25.852-1.663-34.98-3.863-5.395-9.749-6.746-15.426-9.545-12.136-5.982-24.26-10.888-37-15.475m-514 60c-6.172 2.826-11.563 7.893-17 11.964-6.55 4.905-13.349 9.566-19.985 14.37-11.518 8.337-21.839 17.624-33.019 26.387-2.938 2.302-6.584 3.368-9.42 5.733-17.014 14.186-31.89 33.038-43.857 51.55-2.55 3.944-5.463 8.537-6.995 12.996-1.099 3.197-.578 6.689-.894 10-1.38 14.485.665 36.793 15.17 44.907 4.426 2.475 9.46 1.266 14-.269 11.904-4.025 18.746-14.542 29-21.065 9.936-6.32 23.72-7.201 35-9.378 6.805-1.313 13.01-2.817 20-1.766 2.153.324 5.723.558 6.748 2.888 1.172 2.665-1.635 6.39-2.748 8.683-3.613 7.442-7.791 14.801-11.872 22-3.706 6.538-6.661 13.362-10.149 20-10.696 20.356-27.227 48.272-10.979 70 6.765-.713 6.603-4.625 9.403-10 3.999-7.676 9.016-13.955 9.597-23-2.983 1.939-5.617 3.86-9 5 2.999-6.003 8.09-10.107 12.374-15.166 13.816-16.315 30.455-30.289 43.883-46.838 2.827-3.484 5.176-7.41 8.211-10.711 2.367-2.575 5.754-4.758 6.763-8.286 4.678-16.357-10.238-26.012-22.065-33.126-3.718-2.236-7.866-5.495-12.166-6.405-3.767-.796-8.244.596-12 1.107-5.271.717-10.694.75-16 1.255-5.644.537-11.348-.128-17 .26-12.176.833-25.984 2.771-38-.09 8.096-15.617 25.386-30.182 41.09-37.779 3.171-1.535 6.699-1.993 9.91-3.42 10.79-4.795 20.487-9.582 32-12.1 6.594-1.442 15.148-8.749 22-7.814 5.599.765 11.017 9.403 15 13.113 2.597-1.33 3.591-2.436 5-5l6 3c3.404-5.536 6.084-10.229 13-11 .529-2.951.737-5.097 0-8 10.019-4.075 2.775-15.785-1.63-22-9.61-13.559-20.844-26.102-33.454-37.039-3.611-3.131-6.837-7.386-11.086-9.672-11.446-6.16-23.12 3.318-14.83 14.711m131-16c.886 6.861 1.088 14.269 2.376 21 1.288 6.736 4.049 13.067 4.534 20 1.956 27.897-1.653 56.201-2.871 84l-3.024 63c-.5 20.374.74 40.708.981 61 .127 10.662 1.648 21.343 1.259 32-.239 6.54-2.896 13.513-1.721 20 1.155 6.377 4.778 12.553 7.376 18.424 2.794 6.312 4.967 14.646 11.09 18.576-1.022-5.591-.353-10.51 1-16h2c0 1.797.014 1.521 1 3 1.048-2.679.263-5.216.857-8s2.264-5.18 2.803-8c1.214-6.357.34-13.545.34-20 0-19.367-1-38.694-1-58 0-8.847.99-17.223 1.83-26 .27-2.823-.559-7.209 1.773-9.356 4.141-3.812 14.955 3.374 18.397 5.805 7.33 5.176 14.776 10.597 21.561 16.471 4.183 3.621 7.728 8.936 12.609 11.623 5.417 2.983 12.961.587 16.187-4.586 3.25-5.212-.55-12.764-4.027-16.787-7.805-9.035-18.526-16.173-28.33-22.841-3.956-2.69-7.351-6.037-12-7.329 3.008-3.445 12.947-9.856 17.826-8.672 5.98 1.45 7.856 8.716 14.784 2.903 1.376-1.153 2.3-2.684 3.282-4.16 6.482-9.745-2.546-14.608-8.972-21.357-2.921-3.068-6.091-8.418-10.88-8.418-5.205 0-9.312 9.3-13.041 12.375-4.953 4.083-8.406 2.103-13.624 3.953-3.706 1.315-6.336 4.257-10.375 5.376 2.212-9.65 3.313-19.433 5.299-29 2.2-10.605 5.858-21.174 7.496-32 2.646-17.496 2.936-36.114 8.205-53-4.051-3.993-6.375-9.486-10.47-13.525-6.368-6.281-14.59-10.581-21.145-16.835-5.478-5.227-12.28-12.33-20.385-10.64.986-1.479 1-1.203 1-3l-4-2m531 54c3.492-4.912 8.049-7.72 13-11-2.033 25.763-7.144 51.208-8.911 77-1.141 16.67 2.428 34.502-.237 50.981-1.092 6.756-13.111 11.797-16.852 5.019-10.116.763-9.366 9.97-8.96 18 .518 10.227 10.39 17.926 16.79 25 2.918 3.225 5.811 7.652 10.169 9.048 4.962 1.589 12.409-7.136 14.478-11.152 1.656-3.214.449-7.395 1.154-10.896 1.101-5.467 4.926-11.73 8.828-15.701 2.057-2.092 4.932-3.033 7.255-4.777 4.121-3.094 7.576-6.984 12.286-9.263 7.297-3.53 16.533-7.057 21-14.259-9.341-1.734-18.696-2.919-28-1.13-2.974.573-8.654 3.931-11.254 1.483-2.433-2.292-1.026-6.508-.835-9.353.538-8.06.605-15.955 1.665-24 1.612-12.246 1.911-24.731 3.723-37 2.073-14.034 5.659-27.879 7.416-42 .46-3.693.499-7.41 1.614-11 1.7-5.474 5.254-10.153.677-15.491-1.834-2.139-4.864-2.985-7.122-4.603-7.119-5.102-16.393-12.546-25.883-10.515-5.403 1.157-7.963 6.177-13.041 7.645-4.941 1.429-9.879 2.713-14.96 3.54-2.001.326-4.805.333-6.227 2.027-2.482 2.955.275 8.481 1.536 11.397 3.888 8.99 10.409 19.011 20.691 21m-348 26v4c8.07 4.867 4.002 12.677 5.474 20 2.295 11.423 9.827 20.344 13.555 31 1.555 4.442 2.8 12.243 7.196 14.817 4.77 2.794 16.676-3.011 20.229-6.546s4.278-8.911 6.408-13.232c1.728-3.506 5.102-5.192 7.2-8.339 1.751-2.626 1.793-5.986 3.666-8.571 5.871-8.107 17.717-13.39 26.272-18.129-3.238 14.961-13.905 30.291-20.691 43.985L499.564 214c-3.143 6.844-5.251 14.631-9.36 20.985-2.843 4.396-7.29 7.844-11.671 10.618-3.517 2.227-6.98 3.312-8.713 7.416-5.658 13.4 2.399 25.696 11.599 34.678 2.452 2.393 5.186 5.913 8.404 7.285 8.231 3.509 14.693-13.8 17.72-18.982 8.438-14.443 21.214-30.97 35.99-39.367 4.498-2.557 8.979-4.524 14-5.77 2.641-.655 6.372-.59 8.678-2.091 2.858-1.861 1.283-4.986 2.094-7.682.66-2.192 2.483-3.344 3.925-4.97.952-1.075 2.002-2.285 1.551-3.835-1.638-5.636-11.717-5.684-16.248-6.115-5.5-.524-13.439-1.328-18.791.144-2.744.755-4.72 3.357-7.252 4.643-7.536 3.827-15.883 8.668-23.957 11.043 8.233-12.607 17.377-24.099 26.542-36 6.958-9.035 14.866-18.95 24.458-25.444 3.534-2.392 8.722-4.501 13-4.803 2.983-.211 6.098.706 8.996-.357 6.121-2.246 11.587-9.629 17.004-13.396-1.32-6.43-2.133-13.397-5.941-18.91-4.942-7.156-13.774-11.197-19.97-17.165-7.016-6.759-15.367-15.125-26.089-13.697-9.034 1.204-7.794 10.876-15.04 13.882-4.249 1.763-9.47 1.784-13.96 2.697-8.034 1.633-16.014 3.955-24 5.847-11.49 2.723-22.332 9.084-34 10.789-4.271.624-8.663-1.341-13-1.443m-54 82c2.39.675 5.306 2.264 7.83 1.907 3.881-.548 6.783-5.13 10.17-6.907 1.708 12.681 3.992 25.343 5.792 38 .721 5.077.102 10.002 1.52 15 .838 2.952 1.559 6.401 4.171 8.357 5.897 4.417 11.24-4.815 12.517-9.357 5.469-.89 6.83-4.789 6.985-10 .238-8.026-1.054-16.033-1.815-24-2.413-25.255-3.022-50.68-4.131-76-.408-9.33-.957-17.86-3.034-27-.821-3.614-.853-7.682-2.939-10.891-2.495-3.836-7.905-5.235-12.066-6.444-3.399-.988-7.424-2.44-11-2.113-11.099 1.017-18.759 11.594-18.271 22.448.271 6.035 5.195 10.226 5.907 16 .437 3.544-.932 7.527-1.559 11-1.703 9.44-4.555 18.78-7.168 28-4.313 15.218-7.099 31.281-12.963 46-2.018 5.065-8.503 12.246-4.343 17.625 4.34 5.61 18.961 15.426 22.883 4.085 1.691-4.888-1.234-9.844-1.439-14.71-.278-6.6 1.74-14.464 2.953-21z" fill="#56514b"/><path d="M403.533 131c-3.261 8.708-3.721 18.845-5.202 28-1.668 10.303-4.581 20.487-4.798 31 4.453-.203 11.422-.951 13.971-5.225 2.099-3.518.217-8.938.029-12.775-.392-8.009-1.36-16.002-1.91-24-.382-5.546.103-11.823-2.09-17z" fill="#fdfdfd"/><path d="M628.533 158c2.605 13.352-4.591 26.895-11.201 38-2.589 4.35-4.874 8.748-8.799 12 .001-8.56-.752-20.828 6-27v-2c-10.648-5.888-19.483-16.305-32-18 .921 7.127 4.344 13.786 4.544 21 .413 14.882-2.899 29.128.121 44 .978 4.813 1.763 11.038 5.61 14.501 8.333 7.502 16.78 2.215 25.149-1.394 4.346-1.874 7.223-2.016 10.231-6.126 9.707-13.264 11.546-26.532 15.77-41.981 3.3-12.066 7.556-23.571 6.575-36-7.825.001-14.192 3.37-22 3m-479 129c4.785 12.347 12.904 20.559 26 23 .046-16.722.318-32.816 5-49 2.486 1.492 5.839 5.413 8.855 5.368 3.315-.049 6.076-5.221 8.185-7.278 5.395-5.262 12.41-11.629 19.96-13.09 0 12.44 2.06 23.9 4.478 36 .655 3.277-.637 6.888.625 10 1.185 2.924 3.754 5.36 5.457 8 5.02 7.779 6.575 12.548 16.44 14 1.779-3.306 5.686-5.402 6.682-9.09 3.487-12.912-5.594-26.341-7.397-38.91-3.344-23.325-4.391-46.752-7.989-70-1.165-7.531-.747-17.919-3.885-24.867-1.453-3.218-5.332-4.214-8.411-5.25-7.754-2.609-16.315-5.657-23.941-.909-8.35 5.197-1.883 18.359-3.862 26.026-2.859 11.076-8.746 22.231-12.773 33-5.22 13.961-9.357 28.523-15.786 42-3.797 7.959-7.755 19.896-17.638 21z" fill="#56514b"/><path d="M207.533 180c-12.414 12.785-15.557 33.264-19.458 50-1.423 6.105-4.272 11.836-5.542 18 8.796-.901 15.743-6.688 23-11.196 3.624-2.251 7.83-4.564 9.397-8.805 1.299-3.517.114-7.428-.227-10.999-.511-5.344-.756-10.66-1.452-16-.894-6.862-.742-15.755-5.718-21m80 162l1 1z" fill="#fdfdfd"/></svg>