<svg xmlns="http://www.w3.org/2000/svg" height="100" width="100" viewBox="0 0 100 100" stroke-linejoin="round"><style>.a{fill:#d9e7ff;stroke-linejoin:round;stroke-width:6;stroke:#19448e;}.b{fill-opacity:0.01;fill:#35357d;stroke-linejoin:round;stroke-width:10;stroke:#19448e;}</style><path d="M4 44C4 21.9 24.6 4 50 4c25.4 0 46 17.9 46 40 0 22.1-20.6 40-46 40C24.6 84 4 66.1 4 44Z" class="a"/><path d="m21.5 63.3c0-14.3 12.8-25.9 28.7-25.9 15.9 0 28.7 11.6 28.7 25.9 0 14.3-12.8 25.9-28.7 25.9-15.9 0-28.7-11.6-28.7-25.9z" class="b"/><path d="m38 64.1c0-6.1 5.5-11 12.3-11 6.8 0 12.3 4.9 12.3 11 0 6.1-5.5 11-12.3 11-6.8 0-12.3-4.9-12.3-11z" class="b"/><path d="M4 45C4 45 7 80.3 50 81.3 93 81.3 96 45 96 45 96 45 95 92.1 70 92.1 64.9 92.1 65 96 65 96H35c0 0 0-3.9-5-3.9C5 92.2 4 45 4 45Z" class="a"/></svg>
