<?xml version="1.0" encoding="UTF-8" standalone="no"?>
<!-- Created with Vectornator for iOS (http://vectornator.io/) -->

<svg
   height="100%"
   style="fill-rule:nonzero;clip-rule:evenodd;stroke-linecap:round;stroke-linejoin:round;"
   xml:space="preserve"
   width="100%"
   version="1.1"
   viewBox="0 0 100 100"
   id="svg27"
   xmlns="http://www.w3.org/2000/svg"
   xmlns:svg="http://www.w3.org/2000/svg"
   xmlns:vectornator="http://vectornator.io">
<metadata
   id="metadata2">
<vectornator:setting
   key="DimensionsVisible"
   value="1" />
<vectornator:setting
   key="PencilOnly"
   value="0" />
<vectornator:setting
   key="SnapToPoints"
   value="0" />
<vectornator:setting
   key="OutlineMode"
   value="0" />
<vectornator:setting
   key="CMYKEnabledKey"
   value="0" />
<vectornator:setting
   key="RulersVisible"
   value="1" />
<vectornator:setting
   key="SnapToEdges"
   value="0" />
<vectornator:setting
   key="GuidesVisible"
   value="1" />
<vectornator:setting
   key="DisplayWhiteBackground"
   value="0" />
<vectornator:setting
   key="doHistoryDisabled"
   value="0" />
<vectornator:setting
   key="SnapToGuides"
   value="1" />
<vectornator:setting
   key="TimeLapseWatermarkDisabled"
   value="0" />
<vectornator:setting
   key="Units"
   value="Pixels" />
<vectornator:setting
   key="DynamicGuides"
   value="0" />
<vectornator:setting
   key="IsolateActiveLayer"
   value="0" />
<vectornator:setting
   key="SnapToGrid"
   value="0" />
</metadata>
<defs
   id="defs4" />

<g
   id="layer1"
   style="display:inline"><path
     d="M 4,44 C 4,21.8967 24.60492,3.97835 50.02242,3.97835 c 25.4175,0 46.0224,17.91835 46.0224,40.02165 0,22.1034 -20.6049,40.0217 -46.0224,40.0217 C 24.60492,84.0217 4,66.1034 4,44 Z"
     opacity="1"
     fill="#c8d6ee"
     id="path6"
     style="fill-rule:nonzero;clip-rule:evenodd;stroke-linecap:round;stroke-linejoin:round;display:inline;fill:#d9e7ff;fill-opacity:1;stroke:#19448e;stroke-width:6;stroke-miterlimit:4;stroke-dasharray:none;stroke-opacity:1" /><path
     stroke="#35357d"
     stroke-width="9.39"
     d="m 21.5403,63.3036 c 0,-14.3233 12.8499,-25.9347 28.7011,-25.9347 15.8513,0 28.7012,11.6114 28.7012,25.9347 0,14.3233 -12.8499,25.9347 -28.7012,25.9347 -15.8512,0 -28.7011,-11.6114 -28.7011,-25.9347 z"
     fill="#35357d"
     stroke-linecap="round"
     fill-opacity="0.010101"
     opacity="0.9862"
     stroke-linejoin="round"
     id="path20"
     style="fill-rule:nonzero;clip-rule:evenodd;stroke-linecap:round;stroke-linejoin:round;display:inline;stroke-width:10;stroke-miterlimit:4;stroke-dasharray:none;stroke:#19448e;stroke-opacity:1" /><path
     stroke="#35357d"
     stroke-width="8.97"
     d="m 37.9619,64.1068 c 0,-6.0992 5.4977,-11.0437 12.2795,-11.0437 6.7819,0 12.2796,4.9445 12.2796,11.0437 0,6.0993 -5.4977,11.0437 -12.2796,11.0437 -6.7818,0 -12.2795,-4.9444 -12.2795,-11.0437 z"
     fill="#35357d"
     stroke-linecap="round"
     fill-opacity="0.010101"
     opacity="0.9862"
     stroke-linejoin="round"
     id="path22"
     style="fill-rule:nonzero;clip-rule:evenodd;stroke-linecap:round;stroke-linejoin:round;display:inline;stroke-width:10;stroke-miterlimit:4;stroke-dasharray:none;stroke:#19448e;stroke-opacity:1" /><path
     stroke="#35357d"
     stroke-width="3"
     d="M 4,45 C 4,45 7,80.307692 50,81.288462 93,81.288462 96,45 96,45 96,45 95,92.076923 70.014326,92.106378 64.93013,92.112371 65,96 65,96 H 35 c 0,0 0,-3.923077 -4.977345,-3.90207 C 5.0002225,92.203538 4,45 4,45 Z"
     fill="#e0e5ff"
     stroke-linecap="round"
     opacity="1"
     stroke-linejoin="round"
     id="path24"
     style="fill-rule:nonzero;clip-rule:evenodd;stroke-linecap:round;stroke-linejoin:round;display:inline;stroke-width:6;stroke-miterlimit:4;stroke-dasharray:none;stroke:#19448e;stroke-opacity:1;fill:#d9e7ff;fill-opacity:1" /></g></svg>
